<svg width="22" height="23" viewBox="0 0 22 23" fill="none" xmlns="http://www.w3.org/2000/svg">
<path d="M14 5.17363C16.3649 6.2971 18 8.7076 18 11.5M7.39241 17.5C5.35958 16.2751 4 14.0463 4 11.5M21 11.5C21 17.0228 16.5228 21.5 11 21.5C5.47715 21.5 1 17.0228 1 11.5C1 5.97715 5.47715 1.5 11 1.5C16.5228 1.5 21 5.97715 21 11.5ZM14 11.5C14 13.1569 12.6569 14.5 11 14.5C9.34315 14.5 8 13.1569 8 11.5C8 9.84315 9.34315 8.5 11 8.5C12.6569 8.5 14 9.84315 14 11.5Z" stroke="white" stroke-width="2" stroke-linecap="round" stroke-linejoin="round"/>
</svg>
