<svg width="18" height="19" viewBox="0 0 18 19" fill="none" xmlns="http://www.w3.org/2000/svg">
<path d="M5.25 6.875H9M5.25 9.5H11.25M5.25 14V15.7516C5.25 16.1513 5.25 16.3511 5.33192 16.4537C5.40317 16.543 5.5112 16.5949 5.6254 16.5948C5.75672 16.5946 5.91275 16.4698 6.22482 16.2201L8.01391 14.7889C8.37939 14.4965 8.56213 14.3503 8.76561 14.2463C8.94615 14.1541 9.13832 14.0867 9.33691 14.0459C9.56075 14 9.79477 14 10.2628 14H12.15C13.4101 14 14.0402 14 14.5215 13.7548C14.9448 13.539 15.289 13.1948 15.5048 12.7715C15.75 12.2902 15.75 11.6601 15.75 10.4V6.35C15.75 5.08988 15.75 4.45982 15.5048 3.97852C15.289 3.55516 14.9448 3.21095 14.5215 2.99524C14.0402 2.75 13.4101 2.75 12.15 2.75H5.85C4.58988 2.75 3.95982 2.75 3.47852 2.99524C3.05516 3.21095 2.71095 3.55516 2.49524 3.97852C2.25 4.45982 2.25 5.08988 2.25 6.35V11C2.25 11.6975 2.25 12.0462 2.32667 12.3323C2.53472 13.1088 3.1412 13.7153 3.91766 13.9233C4.20378 14 4.55252 14 5.25 14Z" stroke="white" stroke-opacity="0.5" stroke-width="1.5" stroke-linecap="round" stroke-linejoin="round"/>
</svg>
