<svg width="479" height="437" viewBox="0 0 479 437" fill="none" xmlns="http://www.w3.org/2000/svg">
<path fill-rule="evenodd" clip-rule="evenodd" d="M201.143 239.076C201.143 217.578 218.578 200.143 240.076 200.143C261.574 200.143 279.009 217.578 279.009 239.076V262H296.152V239.076C296.152 208.11 271.042 183 240.076 183C209.11 183 184 208.11 184 239.076V262H201.143V239.076Z" fill="url(#paint0_linear_2103_1126)"/>
<g filter="url(#filter0_b_2103_1126)">
<path d="M302.754 262.027H178.015C168.618 262.027 161 269.645 161 279.042V348.985C161 358.382 168.618 366 178.015 366H302.754C312.152 366 319.769 358.382 319.769 348.985V279.042C319.769 269.645 312.152 262.027 302.754 262.027Z" fill="url(#paint1_linear_2103_1126)"/>
<path d="M178.015 265.027H302.754C310.495 265.027 316.769 271.302 316.769 279.042V348.985C316.769 356.725 310.495 363 302.754 363H178.015C170.275 363 164 356.726 164 348.985V279.042C164 271.302 170.275 265.027 178.015 265.027Z" stroke="url(#paint2_linear_2103_1126)" strokeOpacity="0.7" strokeWidth="6"/>
</g>
<g filter="url(#filter1_f_2103_1126)">
<path fill-rule="evenodd" clip-rule="evenodd" d="M210 239.504C210 223.213 223.213 210 239.504 210C255.795 210 269.009 223.213 269.009 239.504V262.429H305.009V239.504C305.009 203.331 275.678 174 239.504 174C203.331 174 174 203.331 174 239.504V262.429H210V239.504Z" fill="url(#paint3_linear_2103_1126)"/>
</g>
<defs>
<filter id="filter0_b_2103_1126" x="107" y="208.027" width="266.769" height="211.973" filterUnits="userSpaceOnUse" color-interpolation-filters="sRGB">
<feFlood floodOpacity="0" result="BackgroundImageFix"/>
<feGaussianBlur in="BackgroundImageFix" stdDeviation="27"/>
<feComposite in2="SourceAlpha" operator="in" result="effect1_backgroundBlur_2103_1126"/>
<feBlend mode="normal" in="SourceGraphic" in2="effect1_backgroundBlur_2103_1126" result="shape"/>
</filter>
<filter id="filter1_f_2103_1126" x="0" y="0" width="479.009" height="436.429" filterUnits="userSpaceOnUse" color-interpolation-filters="sRGB">
<feFlood floodOpacity="0" result="BackgroundImageFix"/>
<feBlend mode="normal" in="SourceGraphic" in2="BackgroundImageFix" result="shape"/>
<feGaussianBlur stdDeviation="87" result="effect1_foregroundBlur_2103_1126"/>
</filter>
<linearGradient id="paint0_linear_2103_1126" x1="179.729" y1="234.327" x2="300.422" y2="234.327" gradientUnits="userSpaceOnUse">
<stop stopColor="#B8B3FF"/>
<stop offset="0.57" stopColor="#7E76E3"/>
<stop offset="0.99" stopColor="#685BFF"/>
</linearGradient>
<linearGradient id="paint1_linear_2103_1126" x1="169.963" y1="360.13" x2="254.508" y2="231.029" gradientUnits="userSpaceOnUse">
<stop stopColor="white" stop-opacity="0.1"/>
<stop offset="1" stopColor="white" stop-opacity="0.4"/>
</linearGradient>
<linearGradient id="paint2_linear_2103_1126" x1="172.207" y1="270.205" x2="249.8" y2="396.894" gradientUnits="userSpaceOnUse">
<stop stopColor="white"/>
<stop offset="1" stopColor="white" stop-opacity="0"/>
</linearGradient>
<linearGradient id="paint3_linear_2103_1126" x1="156.292" y1="212.436" x2="322.717" y2="212.436" gradientUnits="userSpaceOnUse">
<stop stopColor="#B8B2FF"/>
<stop offset="0.5" stopColor="#7E76E3"/>
<stop offset="0.99" stopColor="#685BFF"/>
</linearGradient>
</defs>
</svg>
