<svg width="56" height="62" viewBox="0 0 56 62" fill="none" xmlns="http://www.w3.org/2000/svg">
<g filter="url(#filter0_ddiii_1502_1067)">
<rect x="4" y="8" width="48" height="48" rx="24" fill="#292929" shape-rendering="crispEdges"/>
<rect x="5" y="9" width="46" height="46" rx="23" stroke="black" stroke-opacity="0.7" stroke-width="2" shape-rendering="crispEdges"/>
<path d="M25 38V26.3554C25 25.8739 25 25.6331 25.0876 25.4378C25.1648 25.2657 25.2892 25.1189 25.4463 25.0145C25.6245 24.8959 25.862 24.8564 26.337 24.7772L35.137 23.3105C35.7779 23.2037 36.0984 23.1503 36.3482 23.2431C36.5674 23.3245 36.7511 23.4801 36.8674 23.6829C37 23.914 37 24.2389 37 24.8888V36M25 38C25 39.6569 23.6569 41 22 41C20.3431 41 19 39.6569 19 38C19 36.3432 20.3431 35 22 35C23.6569 35 25 36.3432 25 38ZM37 36C37 37.6569 35.6569 39 34 39C32.3431 39 31 37.6569 31 36C31 34.3432 32.3431 33 34 33C35.6569 33 37 34.3432 37 36Z" stroke="white" stroke-width="2" stroke-linecap="round" stroke-linejoin="round"/>
</g>
<defs>
<filter id="filter0_ddiii_1502_1067" x="0" y="0" width="56" height="62" filterUnits="userSpaceOnUse" color-interpolation-filters="sRGB">
<feFlood flood-opacity="0" result="BackgroundImageFix"/>
<feColorMatrix in="SourceAlpha" type="matrix" values="0 0 0 0 0 0 0 0 0 0 0 0 0 0 0 0 0 0 127 0" result="hardAlpha"/>
<feOffset dy="2"/>
<feGaussianBlur stdDeviation="2"/>
<feComposite in2="hardAlpha" operator="out"/>
<feColorMatrix type="matrix" values="0 0 0 0 1 0 0 0 0 1 0 0 0 0 1 0 0 0 0.1 0"/>
<feBlend mode="normal" in2="BackgroundImageFix" result="effect1_dropShadow_1502_1067"/>
<feColorMatrix in="SourceAlpha" type="matrix" values="0 0 0 0 0 0 0 0 0 0 0 0 0 0 0 0 0 0 127 0" result="hardAlpha"/>
<feOffset dy="-4"/>
<feGaussianBlur stdDeviation="2"/>
<feComposite in2="hardAlpha" operator="out"/>
<feColorMatrix type="matrix" values="0 0 0 0 0 0 0 0 0 0 0 0 0 0 0 0 0 0 0.2 0"/>
<feBlend mode="normal" in2="effect1_dropShadow_1502_1067" result="effect2_dropShadow_1502_1067"/>
<feBlend mode="normal" in="SourceGraphic" in2="effect2_dropShadow_1502_1067" result="shape"/>
<feColorMatrix in="SourceAlpha" type="matrix" values="0 0 0 0 0 0 0 0 0 0 0 0 0 0 0 0 0 0 127 0" result="hardAlpha"/>
<feOffset dy="4"/>
<feGaussianBlur stdDeviation="2"/>
<feComposite in2="hardAlpha" operator="arithmetic" k2="-1" k3="1"/>
<feColorMatrix type="matrix" values="0 0 0 0 1 0 0 0 0 1 0 0 0 0 1 0 0 0 0.2 0"/>
<feBlend mode="normal" in2="shape" result="effect3_innerShadow_1502_1067"/>
<feColorMatrix in="SourceAlpha" type="matrix" values="0 0 0 0 0 0 0 0 0 0 0 0 0 0 0 0 0 0 127 0" result="hardAlpha"/>
<feOffset dy="3"/>
<feGaussianBlur stdDeviation="0.5"/>
<feComposite in2="hardAlpha" operator="arithmetic" k2="-1" k3="1"/>
<feColorMatrix type="matrix" values="0 0 0 0 1 0 0 0 0 1 0 0 0 0 1 0 0 0 0.1 0"/>
<feBlend mode="normal" in2="effect3_innerShadow_1502_1067" result="effect4_innerShadow_1502_1067"/>
<feColorMatrix in="SourceAlpha" type="matrix" values="0 0 0 0 0 0 0 0 0 0 0 0 0 0 0 0 0 0 127 0" result="hardAlpha"/>
<feOffset dy="-4"/>
<feGaussianBlur stdDeviation="2"/>
<feComposite in2="hardAlpha" operator="arithmetic" k2="-1" k3="1"/>
<feColorMatrix type="matrix" values="0 0 0 0 1 0 0 0 0 1 0 0 0 0 1 0 0 0 0.1 0"/>
<feBlend mode="normal" in2="effect4_innerShadow_1502_1067" result="effect5_innerShadow_1502_1067"/>
</filter>
</defs>
</svg>
