<svg width="48" height="64" viewBox="0 0 48 64" fill="none" xmlns="http://www.w3.org/2000/svg">
<g filter="url(#filter0_dii_1715_1395)">
<path d="M31.2055 22.5466C31.3147 22.635 31.4402 22.701 31.5749 22.7409C31.7096 22.7808 31.8509 22.7938 31.9906 22.7791C32.1304 22.7644 32.2658 22.7223 32.3893 22.6553C32.5127 22.5882 32.6218 22.4975 32.7102 22.3882L34.9951 19.566C35.0018 19.5578 35.0058 19.5485 35.0118 19.5403C35.1529 19.3469 35.2271 19.1127 35.2232 18.8733C35.2193 18.6339 35.1374 18.4023 34.9901 18.2136L32.7102 15.3967C32.6218 15.2875 32.5127 15.1968 32.3893 15.1297C32.2658 15.0627 32.1303 15.0206 31.9906 15.0059C31.8509 14.9912 31.7096 15.0041 31.5749 15.044C31.4402 15.0839 31.3147 15.1499 31.2055 15.2384C31.0963 15.3268 31.0056 15.4358 30.9385 15.5593C30.8715 15.6827 30.8294 15.8182 30.8147 15.9579C30.8 16.0976 30.8129 16.2389 30.8528 16.3736C30.8927 16.5083 30.9587 16.6339 31.0472 16.7431L31.9211 17.822H31.1459C30.2257 17.8199 29.3141 18.0003 28.4641 18.3529C27.614 18.7055 26.8424 19.2233 26.1939 19.8762L23.6138 22.456L21.0337 19.8744C19.717 18.5653 17.9373 17.8282 16.0806 17.8231H13.877C13.5933 17.8231 13.3212 17.9358 13.1206 18.1364C12.92 18.337 12.8073 18.6091 12.8073 18.8928C12.8073 19.1765 12.92 19.4486 13.1206 19.6492C13.3212 19.8498 13.5933 19.9625 13.877 19.9625H16.0806C17.3701 19.9657 18.6063 20.4771 19.5211 21.3859L22.1012 23.9675L19.4291 26.6396C18.9784 27.0926 18.4423 27.4518 17.8519 27.6963C17.2614 27.9408 16.6284 28.0658 15.9893 28.0641H13.847C13.7066 28.0641 13.5675 28.0918 13.4377 28.1455C13.3079 28.1993 13.19 28.2781 13.0907 28.3774C12.9913 28.4767 12.9125 28.5947 12.8588 28.7244C12.805 28.8542 12.7773 28.9933 12.7773 29.1338C12.7773 29.2743 12.805 29.4134 12.8588 29.5431C12.9125 29.6729 12.9913 29.7909 13.0907 29.8902C13.19 29.9895 13.3079 30.0683 13.4377 30.1221C13.5675 30.1758 13.7066 30.2035 13.847 30.2035H15.9893C16.9094 30.2061 17.8209 30.0261 18.671 29.674C19.5211 29.3218 20.2929 28.8046 20.9417 28.1522L23.6134 25.4804L26.2848 28.1547C26.9341 28.8067 27.7062 29.3236 28.5565 29.6752C29.4068 30.0269 30.3185 30.2065 31.2386 30.2035H31.6779L30.7223 31.2226C30.5383 31.4312 30.4427 31.7033 30.4559 31.9811C30.4692 32.259 30.5901 32.5208 30.7931 32.711C30.9962 32.9012 31.2653 33.0048 31.5435 32.9998C31.8216 32.9949 32.0869 32.8818 32.283 32.6845L34.9145 29.8779C35.0862 29.6834 35.1843 29.4348 35.1915 29.1754C35.1987 28.916 35.1147 28.6623 34.9541 28.4585L32.6899 25.6665C32.6019 25.5558 32.4929 25.4637 32.3691 25.3954C32.2453 25.3271 32.1092 25.284 31.9687 25.2686C31.8282 25.2533 31.686 25.2659 31.5504 25.3058C31.4148 25.3457 31.2884 25.4121 31.1786 25.5012C31.0688 25.5902 30.9777 25.7001 30.9107 25.8246C30.8436 25.949 30.8019 26.0855 30.7879 26.2262C30.7739 26.3669 30.788 26.509 30.8292 26.6442C30.8705 26.7794 30.9381 26.9051 31.0283 27.014L31.8787 28.0627H31.2386C30.5996 28.0647 29.9665 27.9399 29.376 27.6957C28.7855 27.4514 28.2493 27.0925 27.7985 26.6396L25.1263 23.9653L27.7068 21.3849C28.1573 20.9315 28.6933 20.572 29.2837 20.3272C29.8741 20.0824 30.5071 19.9571 31.1463 19.9586H31.9215L31.0475 21.0379C30.9585 21.1472 30.8919 21.273 30.8516 21.4081C30.8113 21.5432 30.7982 21.6849 30.8128 21.8251C30.8275 21.9653 30.8698 22.1012 30.9371 22.225C31.0045 22.3488 31.0957 22.4581 31.2055 22.5466Z" fill="white" fill-opacity="0.7" shape-rendering="crispEdges"/>
</g>
<g filter="url(#filter1_dd_1715_1395)">
<circle cx="24" cy="54" r="6" fill="url(#paint0_radial_1715_1395)" shape-rendering="crispEdges"/>
<circle cx="24" cy="54" r="6.5"  stroke-opacity="0.7" shape-rendering="crispEdges"/>
</g>
<feFlood flood-opacity="0" result="BackgroundImageFix"/>
<feColorMatrix in="SourceAlpha" type="matrix" values="0 0 0 0 0 0 0 0 0 0 0 0 0 0 0 0 0 0 127 0" result="hardAlpha"/>
<feOffset dy="1.1223"/>
<feGaussianBlur stdDeviation="1.1223"/>
<feComposite in2="hardAlpha" operator="out"/>
<feColorMatrix type="matrix" values="0 0 0 0 0 0 0 0 0 0 0 0 0 0 0 0 0 0 0.3 0"/>
<feBlend mode="normal" in2="BackgroundImageFix" result="effect1_dropShadow_1715_1395"/>
<feBlend mode="normal" in="SourceGraphic" in2="effect1_dropShadow_1715_1395" result="shape"/>
<feColorMatrix in="SourceAlpha" type="matrix" values="0 0 0 0 0 0 0 0 0 0 0 0 0 0 0 0 0 0 127 0" result="hardAlpha"/>
<feOffset dy="1.1223"/>
<feGaussianBlur stdDeviation="1.1223"/>
<feComposite in2="hardAlpha" operator="arithmetic" k2="-1" k3="1"/>
<feColorMatrix type="matrix" values="0 0 0 0 0 0 0 0 0 0 0 0 0 0 0 0 0 0 0.1 0"/>
<feBlend mode="normal" in2="shape" result="effect2_innerShadow_1715_1395"/>
<feColorMatrix in="SourceAlpha" type="matrix" values="0 0 0 0 0 0 0 0 0 0 0 0 0 0 0 0 0 0 127 0" result="hardAlpha"/>
<feOffset dy="-2.2446"/>
<feGaussianBlur stdDeviation="1.1223"/>
<feComposite in2="hardAlpha" operator="arithmetic" k2="-1" k3="1"/>
<feColorMatrix type="matrix" values="0 0 0 0 1 0 0 0 0 1 0 0 0 0 1 0 0 0 0.1 0"/>
<feBlend mode="normal" in2="effect2_innerShadow_1715_1395" result="effect3_innerShadow_1715_1395"/>

<feFlood flood-opacity="0" result="BackgroundImageFix"/>
<feColorMatrix in="SourceAlpha" type="matrix" values="0 0 0 0 0 0 0 0 0 0 0 0 0 0 0 0 0 0 127 0" result="hardAlpha"/>
<feOffset dy="2"/>
<feGaussianBlur stdDeviation="0.5"/>
<feComposite in2="hardAlpha" operator="out"/>
<feColorMatrix type="matrix" values="0 0 0 0 0.486275 0 0 0 0 0.921569 0 0 0 0 0.419608 0 0 0 0.1 0"/>
<feBlend mode="normal" in2="BackgroundImageFix" result="effect1_dropShadow_1715_1395"/>
<feColorMatrix in="SourceAlpha" type="matrix" values="0 0 0 0 0 0 0 0 0 0 0 0 0 0 0 0 0 0 127 0" result="hardAlpha"/>
<feOffset dy="-2"/>
<feGaussianBlur stdDeviation="1"/>
<feComposite in2="hardAlpha" operator="out"/>
<feColorMatrix type="matrix" values="0 0 0 0 0 0 0 0 0 0 0 0 0 0 0 0 0 0 0.5 0"/>
<feBlend mode="normal" in2="effect1_dropShadow_1715_1395" result="effect2_dropShadow_1715_1395"/>
<feBlend mode="normal" in="SourceGraphic" in2="effect2_dropShadow_1715_1395" result="shape"/>
<radialGradient id="paint0_radial_1715_1395" cx="0" cy="0" r="1" gradientUnits="userSpaceOnUse" gradientTransform="translate(22.5 52) rotate(61.3895) scale(6.26498)">
<stop stop-color="white"/>
<stop offset="1" stop-color="#63DE50"/>
</radialGradient>
</svg>
