<svg width="48" height="61" viewBox="0 0 48 61" fill="none" xmlns="http://www.w3.org/2000/svg">
<path d="M31.704 22.5466C31.8207 22.635 31.9549 22.701 32.099 22.7409C32.243 22.7808 32.3941 22.7938 32.5435 22.7791C32.6929 22.7644 32.8377 22.7223 32.9697 22.6553C33.1018 22.5882 33.2183 22.4975 33.3129 22.3882L35.7559 19.566C35.7632 19.5578 35.7674 19.5485 35.7739 19.5403C35.9247 19.3469 36.004 19.1127 35.9998 18.8733C35.9956 18.6339 35.9081 18.4023 35.7506 18.2136L33.3129 15.3967C33.2183 15.2875 33.1017 15.1968 32.9697 15.1297C32.8377 15.0627 32.6929 15.0206 32.5435 15.0059C32.3941 14.9912 32.243 15.0041 32.099 15.044C31.955 15.0839 31.8207 15.1499 31.704 15.2384C31.5872 15.3268 31.4902 15.4358 31.4185 15.5593C31.3468 15.6827 31.3018 15.8182 31.2861 15.9579C31.2704 16.0976 31.2843 16.2389 31.3269 16.3736C31.3696 16.5083 31.4402 16.6339 31.5347 16.7431L32.4691 17.822H31.6403C30.6563 17.8199 29.6817 18.0003 28.7728 18.3529C27.8639 18.7055 27.0389 19.2233 26.3454 19.8762L23.5867 22.456L20.8279 19.8744C19.4201 18.5653 17.5172 17.8282 15.5319 17.8231H13.1758C12.8724 17.8231 12.5815 17.9358 12.367 18.1364C12.1525 18.337 12.032 18.6091 12.032 18.8928C12.032 19.1765 12.1525 19.4486 12.367 19.6492C12.5815 19.8498 12.8724 19.9625 13.1758 19.9625H15.5319C16.9107 19.9657 18.2325 20.4771 19.2107 21.3859L21.9694 23.9675L19.1123 26.6396C18.6303 27.0926 18.0571 27.4518 17.4258 27.6963C16.7945 27.9408 16.1176 28.0658 15.4343 28.0641H13.1438C12.9936 28.0641 12.8448 28.0918 12.7061 28.1455C12.5673 28.1993 12.4412 28.2781 12.335 28.3774C12.2288 28.4767 12.1445 28.5947 12.0871 28.7244C12.0296 28.8542 12 28.9933 12 29.1338C12 29.2743 12.0296 29.4134 12.0871 29.5431C12.1445 29.6729 12.2288 29.7909 12.335 29.8902C12.4412 29.9895 12.5673 30.0683 12.7061 30.1221C12.8448 30.1758 12.9936 30.2035 13.1438 30.2035H15.4343C16.4182 30.2061 17.3927 30.0261 18.3017 29.674C19.2106 29.3218 20.0358 28.8046 20.7296 28.1522L23.5863 25.4804L26.4427 28.1547C27.1369 28.8067 27.9624 29.3236 28.8716 29.6752C29.7808 30.0269 30.7556 30.2065 31.7394 30.2035H32.2091L31.1874 31.2226C30.9906 31.4312 30.8884 31.7033 30.9025 31.9811C30.9167 32.259 31.046 32.5208 31.2631 32.711C31.4802 32.9012 31.7679 33.0048 32.0653 32.9998C32.3628 32.9949 32.6464 32.8818 32.8561 32.6845L35.6698 29.8779C35.8534 29.6834 35.9582 29.4348 35.966 29.1754C35.9737 28.916 35.8839 28.6623 35.7121 28.4585L33.2911 25.6665C33.1971 25.5558 33.0805 25.4637 32.9482 25.3954C32.8158 25.3271 32.6703 25.284 32.5201 25.2686C32.3698 25.2533 32.2178 25.2659 32.0728 25.3058C31.9277 25.3457 31.7926 25.4121 31.6752 25.5012C31.5578 25.5902 31.4605 25.7001 31.3888 25.8246C31.3171 25.949 31.2724 26.0855 31.2575 26.2262C31.2425 26.3669 31.2576 26.509 31.3017 26.6442C31.3458 26.7794 31.4181 26.9051 31.5145 27.014L32.4238 28.0627H31.7394C31.0562 28.0647 30.3792 27.9399 29.7479 27.6957C29.1165 27.4514 28.5432 27.0925 28.0611 26.6396L25.204 23.9653L27.9631 21.3849C28.4448 20.9315 29.0179 20.572 29.6491 20.3272C30.2804 20.0824 30.9573 19.9571 31.6407 19.9586H32.4695L31.5351 21.0379C31.4399 21.1472 31.3687 21.273 31.3256 21.4081C31.2825 21.5432 31.2685 21.6849 31.2842 21.8251C31.2999 21.9653 31.345 22.1012 31.4171 22.225C31.4891 22.3488 31.5866 22.4581 31.704 22.5466Z" fill="white" fill-opacity="0.7"/>
<circle cx="24" cy="54" r="6" fill="url(#paint0_radial_1715_1395)"/>
<circle cx="24" cy="54" r="6.5" stroke="black" stroke-opacity="0.7"/>
<defs>
<radialGradient id="paint0_radial_1715_1395" cx="0" cy="0" r="1" gradientUnits="userSpaceOnUse" gradientTransform="translate(22.5 52) rotate(61.3895) scale(6.26498)">
<stop stop-color="white"/>
<stop offset="1" stop-color="#63DE50"/>
</radialGradient>
</defs>
</svg>
