<svg width="334" height="334" viewBox="0 0 334 334" fill="none" xmlns="http://www.w3.org/2000/svg">
<g filter="url(#filter0_d_1729_1857)">
<path d="M317 167C317 249.843 249.843 317 167 317C84.1573 317 17 249.843 17 167C17 84.1573 84.1573 17 167 17C249.843 17 317 84.1573 317 167Z" fill="url(#paint0_linear_1729_1857)"/>
<path d="M317 167C317 249.843 249.843 317 167 317C84.1573 317 17 249.843 17 167C17 84.1573 84.1573 17 167 17C249.843 17 317 84.1573 317 167Z" stroke="black"/>
<path d="M311 167C311 246.529 246.529 311 167 311C87.4705 311 22.9995 246.529 22.9995 167C22.9995 87.471 87.4705 23 167 23C246.529 23 311 87.471 311 167Z" stroke="black"/>
<path d="M305.001 167C305.001 243.215 243.216 305 167.001 305C90.7855 305 29.0007 243.215 29.0007 167C29.0007 90.7847 90.7855 29 167.001 29C243.216 29 305.001 90.7847 305.001 167Z" stroke="black"/>
<path d="M299 167C299 239.902 239.901 299 167 299C94.0979 299 34.9995 239.902 34.9995 167C34.9995 94.0984 94.0979 34.9999 167 34.9999C239.901 34.9999 299 94.0984 299 167Z" stroke="black"/>
<path d="M293 167C293 236.588 236.588 293 167 293C97.412 293 40.9999 236.588 40.9999 167C40.9999 97.4121 97.412 41 167 41C236.588 41 293 97.4121 293 167Z" stroke="black"/>
<path d="M287 167C287 233.274 233.275 287 167 287C100.726 287 47.0004 233.274 47.0004 167C47.0004 100.726 100.726 47 167 47C233.275 47 287 100.726 287 167Z" stroke="black"/>
<path d="M281.001 167C281.001 229.96 229.961 281 167.001 281C104.04 281 53.0007 229.96 53.0007 167C53.0007 104.04 104.04 53 167.001 53C229.961 53 281.001 104.04 281.001 167Z" stroke="black"/>
<path d="M274.999 167C274.999 226.647 226.646 275 166.999 275C107.353 275 58.9994 226.647 58.9994 167C58.9994 107.353 107.353 59 166.999 59C226.646 59 274.999 107.353 274.999 167Z" stroke="black"/>
<path d="M269 167C269 223.333 223.333 269 167 269C110.667 269 64.9999 223.333 64.9999 167C64.9999 110.667 110.667 65 167 65C223.333 65 269 110.667 269 167Z" stroke="black"/>
<path d="M262.999 167C262.999 220.019 220.019 263 166.999 263C113.98 263 70.9994 220.019 70.9994 167C70.9994 113.981 113.98 71 166.999 71C220.019 71 262.999 113.981 262.999 167Z" stroke="black"/>
<path d="M257.001 167C257.001 216.706 216.706 257 167.001 257C117.295 257 77.0007 216.706 77.0007 167C77.0007 117.294 117.295 77 167.001 77C216.706 77 257.001 117.294 257.001 167Z" stroke="black"/>
</g>
<feFlood flood-opacity="0" result="BackgroundImageFix"/>
<feColorMatrix in="SourceAlpha" type="matrix" values="0 0 0 0 0 0 0 0 0 0 0 0 0 0 0 0 0 0 127 0" result="hardAlpha"/>
<feOffset/>
<feGaussianBlur stdDeviation="8"/>
<feComposite in2="hardAlpha" operator="out"/>
<feColorMatrix type="matrix" values="0 0 0 0 0.823529 0 0 0 0 0.537255 0 0 0 0 0.690196 0 0 0 0.5 0"/>
<feBlend mode="normal" in2="BackgroundImageFix" result="effect1_dropShadow_1729_1857"/>
<feBlend mode="normal" in="SourceGraphic" in2="effect1_dropShadow_1729_1857" result="shape"/>
<linearGradient id="paint0_linear_1729_1857" x1="17" y1="17" x2="317" y2="317" gradientUnits="userSpaceOnUse">
<stop offset="0.335"/>
<stop offset="0.48243" stop-opacity="0.2"/>
<stop offset="0.6"/>
</linearGradient>
</svg>
