<svg width="24" height="24" viewBox="0 0 24 24" fill="none" xmlns="http://www.w3.org/2000/svg">
<path d="M19 4.98963C19 4.01847 19 3.53289 18.7975 3.26522C18.6211 3.03203 18.3515 2.88773 18.0596 2.8703C17.7246 2.8503 17.3205 3.11965 16.5125 3.65835L5.99692 10.6687C5.32923 11.1139 4.99539 11.3364 4.87906 11.6169C4.77735 11.8622 4.77735 12.1378 4.87906 12.3831C4.99539 12.6636 5.32924 12.8862 5.99692 13.3313L16.5125 20.3417C17.3205 20.8804 17.7246 21.1497 18.0596 21.1297C18.3515 21.1123 18.6211 20.968 18.7975 20.7348C19 20.4671 19 19.9815 19 19.0104V4.98963Z" fill="white"/>
</svg>
