<svg width="80" height="80" viewBox="0 0 80 80" fill="none" xmlns="http://www.w3.org/2000/svg">
<rect width="80" height="80" rx="40" fill="black" fill-opacity="0.1"/>
<path d="M64 67C64 62.8133 64 60.7199 63.4833 59.0166C62.3199 55.1813 59.3186 52.1801 55.4834 51.0167C53.78 50.5 51.6867 50.5 47.5 50.5H32.5C28.3133 50.5 26.22 50.5 24.5166 51.0167C20.6814 52.1801 17.6801 55.1813 16.5167 59.0166C16 60.7199 16 62.8133 16 67M53.5 26.5C53.5 33.9558 47.4558 40 40 40C32.5442 40 26.5 33.9558 26.5 26.5C26.5 19.0442 32.5442 13 40 13C47.4558 13 53.5 19.0442 53.5 26.5Z" stroke="black" stroke-opacity="0.3" stroke-width="6" stroke-linecap="round" stroke-linejoin="round"/>
</svg>
